<svg xmlns="http://www.w3.org/2000/svg" version="1.1" xmlns:xlink="http://www.w3.org/1999/xlink" xmlns:svgjs="http://svgjs.dev/svgjs" viewBox="0 0 1920 1080"><rect width="1920" height="1080" fill="#cc15e5"></rect><g transform="matrix(7.04171909509728e-17,1.15,-1.15,7.04171909509728e-17,1543.3331451416016,-520.6831169128418)"><path d="M0,-1080C-11.87597849473707,-1022.5239196686599,-71.19112917592498,-865.5607720073928,-71.25587096842243,-735.1435180119597C-71.32061276091987,-604.7262640165267,-8.674218729894688,-435.9542000947963,-0.3884507549846603,-297.4964760274018C7.897317219925368,-159.03875196000732,-9.051333847980652,-42.08892639159551,-21.541263118962256,95.60282639240727C-34.03119238994386,233.29457917641002,-75.89514273849039,399.62624597138586,-75.32802638087428,528.6540406766147C-74.76091002325816,657.6818353818436,-20.201677923835224,738.0711586114369,-18.13856497326556,869.7695946237804C-16.075452022695895,1001.468030636124,-73.34479776412027,1177.665446289952,-62.949348677456285,1318.8446567506758C-52.5538995907923,1460.0238672113996,33.742571433809,1576.6523001799032,44.23412954671838,1716.844857388124C54.72568765962776,1857.0374145963447,7.372354924453063,2086.1408095646875,0,2160L 1920 2160 L 1920 -1080 Z" fill="url(&quot;#SvgjsLinearGradient1223&quot;)"></path><path d="M213.33333333333331,-1080C206.94784781582734,-978.2945630947909,175.1299446046059,-683.9986411570057,175.02042022829755,-469.76737856874496C174.9108958519892,-255.5361159804841,210.77654835290386,-24.34673243431351,212.6761870754832,205.38757552956503C214.57582579806254,435.12188349344353,193.82958747986453,685.1410733043147,186.41825256377356,908.6384692145261C179.0069176476826,1132.1358651247376,163.72233078401084,1337.8116958599219,168.20817757893747,1546.3719509908342C172.6940243738641,1754.9322061217465,205.812474040934,2057.728658498472,213.33333333333331,2160L 1920 2160 L 1920 -1080 Z" fill="url(&quot;#SvgjsLinearGradient1224&quot;)"></path><path d="M426.66666666666663,-1080C439.62142435040437,-957.8690539030866,504.8712203965459,-614.1580703279774,504.3952127690931,-347.2143234185196C503.91920514164036,-80.27057650906187,435.9924419658647,243.04561769222784,423.81062090195013,521.6624814567461C411.62879983803555,800.2793452212645,430.8282787581527,1051.430606078048,431.30428638560545,1324.4868591685902C431.7802940130582,1597.5431122591324,427.4396032864898,2020.7478098614317,426.66666666666663,2160L 1920 2160 L 1920 -1080 Z" fill="url(&quot;#SvgjsLinearGradient1225&quot;)"></path><path d="M640,-1080C652.4619017666474,-992.5894138906251,712.7411125738275,-726.5945658862314,714.7714105998846,-555.536483343751C716.8017086259416,-384.4784008012706,665.2781373654864,-233.03741009363296,652.1817881563422,-53.65150474511745C639.0854389471981,125.73440060339806,642.4461551927103,323.6934889268464,636.1933153450196,520.7789487473419C629.940475497329,717.8644085678375,612.0242631926443,945.449875958208,614.664749070198,1128.8612541778557C617.3052349477517,1312.2726323975035,647.8136887887083,1449.390760428204,652.0362306103419,1621.247218065228C656.2587724319756,1793.103675702252,642.006038435057,2070.207869677538,640,2160L 1920 2160 L 1920 -1080 Z" fill="url(&quot;#SvgjsLinearGradient1226&quot;)"></path><path d="M853.3333333333333,-1080C848.7832452835961,-980.6975012297753,832.4471571046902,-669.6150449767288,826.0328050349101,-484.185007378652C819.61845296513,-298.75496978057527,820.0133349372511,-143.95512069035624,814.8472209146531,32.580225588460266C809.6811068920551,209.11557186727674,778.8098340544008,403.0399199077376,795.0361208993224,575.0270702942469C811.2624077442441,747.0142206807561,907.9040763241587,891.5519505655204,912.2049419841829,1064.5031279075158C916.5058076442072,1237.4543052495112,830.6532496346097,1430.151322330805,820.8413148594681,1612.734134346219C811.0293800843265,1795.316946361633,847.9179969210224,2068.7890223910363,853.3333333333333,2160L 1920 2160 L 1920 -1080 Z" fill="url(&quot;#SvgjsLinearGradient1227&quot;)"></path><path d="M1066.6666666666667,-1080C1079.7852609917259,-963.6254485070335,1146.5678638031286,-586.8351157057915,1145.378232617022,-381.7526910422015C1144.1886014309152,-176.67026637861144,1068.7525395538955,-58.47834632558241,1059.5288795500273,150.4945479815404C1050.3052195461592,359.46744228866316,1076.046132128155,651.6391200916615,1090.0362725938128,872.0846748005353C1104.0264130594705,1092.530229509409,1147.3646566651648,1258.515322034872,1143.469722343974,1473.1678762347829C1139.574788022783,1687.8204304346937,1079.467175946218,2045.5279793724637,1066.6666666666667,2160L 1920 2160 L 1920 -1080 Z" fill="url(&quot;#SvgjsLinearGradient1228&quot;)"></path><path d="M1280,-1080C1270.0035492947318,-996.5970053448541,1220.29291514841,-753.4074982034397,1220.0212957683912,-579.5820320691242C1219.7496763883723,-405.7565659348088,1274.2183185157369,-225.49461137226322,1278.3702837198866,-37.04720319410711C1282.5222489240364,151.400204984049,1243.843695064464,364.97386451899695,1244.933086993289,551.1024169998124C1246.0224789221138,737.2309694806278,1272.3489071550343,908.1106566106979,1284.9066352928355,1079.724111690785C1297.4643634306367,1251.3375667708722,1321.0972283689025,1400.7371660954664,1320.2794558200967,1580.7831474803354C1319.461683271291,1760.8291288652044,1286.7132426366827,2063.4638579133893,1280,2160L 1920 2160 L 1920 -1080 Z" fill="url(&quot;#SvgjsLinearGradient1229&quot;)"></path><path d="M1493.3333333333333,-1080C1482.2879974009397,-982.9986828187771,1433.8154382594016,-671.221099651156,1427.0613177389728,-497.9920969126622C1420.307197218544,-324.7630941741684,1453.5441946243482,-223.75219070550895,1452.8086102107595,-40.62598356903717C1452.0730257971709,142.5002235674346,1413.7552623591093,404.1622882930294,1422.6478112574414,600.7651459061685C1431.5403601557734,797.3680035193076,1501.8321662615697,973.6806128754943,1506.1639036007514,1138.9911621097979C1510.495640939933,1304.3017113441015,1450.776663670435,1422.460301663623,1448.638235292532,1592.6284413119902C1446.499806914629,1762.7965809603572,1485.884150326533,2065.4380735519985,1493.3333333333333,2160L 1920 2160 L 1920 -1080 Z" fill="url(&quot;#SvgjsLinearGradient1230&quot;)"></path><path d="M1706.6666666666665,-1080C1718.955804030637,-995.283345718985,1787.1513732615101,-729.0658508606191,1780.4014908504887,-571.7000743139093C1773.6516084394673,-414.3342977671996,1674.610338418015,-289.2387180934595,1666.1673722005382,-135.8053407197413C1657.7244059830614,17.62803665397692,1727.114044353588,188.08762591147968,1729.7436935456278,348.9001899284001C1732.3733427376676,509.7127539453205,1675.5900788447755,681.9835242727327,1681.9452673527767,829.0700433817813C1688.300455860778,976.1565624908299,1762.1599169305966,1077.3027672233775,1767.874824593635,1231.4193045826914C1773.5897322566732,1385.5358419420054,1726.4360729855016,1599.005818301447,1716.2347133310068,1753.7692675376652C1706.033353676512,1908.5327167738833,1708.2613411107232,2092.294877922944,1706.6666666666665,2160L 1920 2160 L 1920 -1080 Z" fill="url(&quot;#SvgjsLinearGradient1231&quot;)"></path></g><defs><linearGradient x1="0.1" y1="0" x2="0" y2="1" id="SvgjsLinearGradient1223"><stop stop-color="#cc15e5" offset="0"></stop><stop stop-color="#a915e5" offset="0"></stop></linearGradient><linearGradient x1="0.1" y1="0" x2="0" y2="1" id="SvgjsLinearGradient1224"><stop stop-color="#ba13d1" offset="0"></stop><stop stop-color="#9a13d1" offset="0.1111111111111111"></stop></linearGradient><linearGradient x1="0.1" y1="0" x2="0" y2="1" id="SvgjsLinearGradient1225"><stop stop-color="#a811bc" offset="0"></stop><stop stop-color="#8b11bc" offset="0.2222222222222222"></stop></linearGradient><linearGradient x1="0.1" y1="0" x2="0" y2="1" id="SvgjsLinearGradient1226"><stop stop-color="#960fa8" offset="0"></stop><stop stop-color="#7c0fa8" offset="0.3333333333333333"></stop></linearGradient><linearGradient x1="0.1" y1="0" x2="0" y2="1" id="SvgjsLinearGradient1227"><stop stop-color="#840e94" offset="0"></stop><stop stop-color="#6e0e94" offset="0.4444444444444444"></stop></linearGradient><linearGradient x1="0.1" y1="0" x2="0" y2="1" id="SvgjsLinearGradient1228"><stop stop-color="#720c80" offset="0"></stop><stop stop-color="#5f0c80" offset="0.5555555555555556"></stop></linearGradient><linearGradient x1="0.1" y1="0" x2="0" y2="1" id="SvgjsLinearGradient1229"><stop stop-color="#600a6c" offset="0"></stop><stop stop-color="#500a6c" offset="0.6666666666666666"></stop></linearGradient><linearGradient x1="0.1" y1="0" x2="0" y2="1" id="SvgjsLinearGradient1230"><stop stop-color="#4e0857" offset="0"></stop><stop stop-color="#410857" offset="0.7777777777777778"></stop></linearGradient><linearGradient x1="0.1" y1="0" x2="0" y2="1" id="SvgjsLinearGradient1231"><stop stop-color="#3c0643" offset="0"></stop><stop stop-color="#320643" offset="0.8888888888888888"></stop></linearGradient></defs></svg>